name Walk8.mot
datacolumns 19
datarows 15
range 1.53300000 1.54700000
endheader

                time	   L_ground_force_vx	   L_ground_force_vy	   L_ground_force_vz	   L_ground_force_px	   L_ground_force_py	   L_ground_force_pz	   R_ground_force_vx	   R_ground_force_vy	   R_ground_force_vz	   R_ground_force_px	   R_ground_force_py	   R_ground_force_pz	   L_ground_torque_x	   L_ground_torque_y	   L_ground_torque_z	   R_ground_torque_x	   R_ground_torque_y	   R_ground_torque_z	
          1.53300000	         18.73291291	        618.09658863	         37.81935767	         -0.19219003	          0.00000000	         -0.03425032	          0.00000000	          0.00000000	          0.00000000	          0.00000000	          0.00000000	          0.00000000	          0.00000000	         -1.37524888	          0.00000000	          0.00000000	          0.00000000	          0.00000000	
          1.53400000	         18.89282192	        618.99819023	         37.93206670	         -0.19159869	          0.00000000	         -0.03434600	          0.00000000	          0.00000000	          0.00000000	          0.00000000	          0.00000000	          0.00000000	          0.00000000	         -1.39298092	          0.00000000	          0.00000000	          0.00000000	          0.00000000	
          1.53500000	         19.02847008	        619.95109797	         38.06002911	         -0.19099810	          0.00000000	         -0.03440961	          0.00000000	          0.00000000	          0.00000000	          0.00000000	          0.00000000	          0.00000000	          0.00000000	         -1.41016897	          0.00000000	          0.00000000	          0.00000000	          0.00000000	
          1.53600000	         19.15136105	        620.89729365	         38.19217327	         -0.19037758	          0.00000000	         -0.03442132	          0.00000000	          0.00000000	          0.00000000	          0.00000000	          0.00000000	          0.00000000	          0.00000000	         -1.42263379	          0.00000000	          0.00000000	          0.00000000	          0.00000000	
          1.53700000	         19.27197760	        621.76481320	         38.31659316	         -0.18972056	          0.00000000	         -0.03438606	          0.00000000	          0.00000000	          0.00000000	          0.00000000	          0.00000000	          0.00000000	          0.00000000	         -1.42501457	          0.00000000	          0.00000000	          0.00000000	          0.00000000	
          1.53800000	         19.39713113	        622.53641687	         38.42924047	         -0.18902729	          0.00000000	         -0.03433847	          0.00000000	          0.00000000	          0.00000000	          0.00000000	          0.00000000	          0.00000000	          0.00000000	         -1.41861368	          0.00000000	          0.00000000	          0.00000000	          0.00000000	
          1.53900000	         19.53846338	        623.25061900	         38.53252173	         -0.18832688	          0.00000000	         -0.03431791	          0.00000000	          0.00000000	          0.00000000	          0.00000000	          0.00000000	          0.00000000	          0.00000000	         -1.41007340	          0.00000000	          0.00000000	          0.00000000	          0.00000000	
          1.54000000	         19.70566798	        623.94325445	         38.63360825	         -0.18765057	          0.00000000	         -0.03433432	          0.00000000	          0.00000000	          0.00000000	          0.00000000	          0.00000000	          0.00000000	          0.00000000	         -1.40418387	          0.00000000	          0.00000000	          0.00000000	          0.00000000	
          1.54100000	         19.89249686	        624.62816270	         38.74173522	         -0.18700678	          0.00000000	         -0.03437105	          0.00000000	          0.00000000	          0.00000000	          0.00000000	          0.00000000	          0.00000000	          0.00000000	         -1.40397767	          0.00000000	          0.00000000	          0.00000000	          0.00000000	
          1.54200000	         20.08091703	        625.30278789	         38.85897811	         -0.18638534	          0.00000000	         -0.03441591	          0.00000000	          0.00000000	          0.00000000	          0.00000000	          0.00000000	          0.00000000	          0.00000000	         -1.41338050	          0.00000000	          0.00000000	          0.00000000	          0.00000000	
          1.54300000	         20.25689963	        625.95048671	         38.98073484	         -0.18576678	          0.00000000	         -0.03447366	          0.00000000	          0.00000000	          0.00000000	          0.00000000	          0.00000000	          0.00000000	          0.00000000	         -1.43185294	          0.00000000	          0.00000000	          0.00000000	          0.00000000	
          1.54400000	         20.41424134	        626.55809296	         39.10729898	         -0.18512690	          0.00000000	         -0.03455043	          0.00000000	          0.00000000	          0.00000000	          0.00000000	          0.00000000	          0.00000000	          0.00000000	         -1.45191675	          0.00000000	          0.00000000	          0.00000000	          0.00000000	
          1.54500000	         20.55263562	        627.12311107	         39.23985260	         -0.18444976	          0.00000000	         -0.03464704	          0.00000000	          0.00000000	          0.00000000	          0.00000000	          0.00000000	          0.00000000	          0.00000000	         -1.46806635	          0.00000000	          0.00000000	          0.00000000	          0.00000000	
          1.54600000	         20.68077844	        627.63566809	         39.36970202	         -0.18373546	          0.00000000	         -0.03475760	          0.00000000	          0.00000000	          0.00000000	          0.00000000	          0.00000000	          0.00000000	          0.00000000	         -1.47984056	          0.00000000	          0.00000000	          0.00000000	          0.00000000	
          1.54700000	         20.81114119	        628.08169921	         39.49065091	         -0.18299052	          0.00000000	         -0.03485451	          0.00000000	          0.00000000	          0.00000000	          0.00000000	          0.00000000	          0.00000000	          0.00000000	         -1.48501280	          0.00000000	          0.00000000	          0.00000000	          0.00000000	
